# xmcd CD database file
#
# Track frame offsets:
#	150
#	15271
#	35836
#	53353
#	65418
#	89038
#	135174
#	169001
#	189667
#	206060
#	259049
#	271051
#	300357
#	313398
#	336302
#
# Disc length: 4705 seconds
#
# Revision: 0
# Processed by: cddbd v1.5.1PL0 Copyright (c) Steve Scherf et al.
# Submitted via: CDex 1.51
#
DISCID=cd125f0f
DTITLE=Various Artist - Sberbank Jazz Collection #2
DYEAR=2002
DGENRE=Jazz
TTITLE0=Au Contraire-Gusjatinskiy S.-Pb Big Band
TTITLE1=Jungle-Gusjatinskiy S.-Pb Big Band
TTITLE2=Leaving Song-Gusjatinskiy S.-Pb Big Band
TTITLE3=There's A Boot That's Leaving Soon For New York-Gusjatinskiy S.-Pb Big Band
TTITLE4=Ca C'est Bon (C'est Si Bon)-Gusjatinskiy S.-Pb Big Band
TTITLE5=Fall-Solar Project
TTITLE6=Bad Climate-Solar Project
TTITLE7=Ber's Mood-Solar Project
TTITLE8=La Musique-Solar Project
TTITLE9=8Steps Down-Solar Project
TTITLE10=Tacos-Alexander Latin Band
TTITLE11=Ican-Alexander Latin Band
TTITLE12=Vibe Cha-Cha-Alexander Latin Band
TTITLE13=Up And Down Mambo-Alexander Latin Band
TTITLE14=Blues-Alexander Latin Band
EXTD=YEAR: 2002
EXTT0=
EXTT1=
EXTT2=
EXTT3=
EXTT4=
EXTT5=
EXTT6=
EXTT7=
EXTT8=
EXTT9=
EXTT10=
EXTT11=
EXTT12=
EXTT13=
EXTT14=
PLAYORDER=
